<svg width="52" height="52" viewBox="0 0 52 52" fill="none" xmlns="http://www.w3.org/2000/svg">
<rect width="52" height="52" rx="26" fill="#F05A5B"/>
<path d="M13.7451 40.6765C15.2612 40.6765 16.4902 39.4475 16.4902 37.9314C16.4902 36.4153 15.2612 35.1863 13.7451 35.1863C12.229 35.1863 11 36.4153 11 37.9314C11 39.4475 12.229 40.6765 13.7451 40.6765Z" stroke="white" stroke-width="2" stroke-linecap="round" stroke-linejoin="round"/>
<path d="M25.8725 40.6765C27.3886 40.6765 28.6176 39.4475 28.6176 37.9314C28.6176 36.4153 27.3886 35.1863 25.8725 35.1863C24.3565 35.1863 23.1274 36.4153 23.1274 37.9314C23.1274 39.4475 24.3565 40.6765 25.8725 40.6765Z" stroke="white" stroke-width="2" stroke-linecap="round" stroke-linejoin="round"/>
<path d="M38.2549 40.6765C39.7709 40.6765 41 39.4475 41 37.9314C41 36.4153 39.7709 35.1863 38.2549 35.1863C36.7388 35.1863 35.5098 36.4153 35.5098 37.9314C35.5098 39.4475 36.7388 40.6765 38.2549 40.6765Z" stroke="white" stroke-width="2" stroke-linecap="round" stroke-linejoin="round"/>
<path d="M16.4805 37.9314H22.1667" stroke="#F9F9F9" stroke-width="2" stroke-linecap="round" stroke-linejoin="round"/>
<path d="M29.1863 37.9314H34.8628" stroke="#F9F9F9" stroke-width="2" stroke-linecap="round" stroke-linejoin="round"/>
<path d="M12.7354 30.3333H39.2648" stroke="#F9F9F9" stroke-width="2" stroke-linecap="round" stroke-linejoin="round"/>
<path d="M15.5293 11V29.8431" stroke="#F9F9F9" stroke-width="2" stroke-linecap="round" stroke-linejoin="round"/>
<path d="M20.7646 17.3921V29.7646" stroke="#F9F9F9" stroke-width="2" stroke-linecap="round" stroke-linejoin="round"/>
<path d="M26 12.8628V29.6863" stroke="#F9F9F9" stroke-width="2" stroke-linecap="round" stroke-linejoin="round"/>
<path d="M31.2354 20.7842V29.6861" stroke="#F9F9F9" stroke-width="2" stroke-linecap="round" stroke-linejoin="round"/>
<path d="M36.4805 16.4216V29.8432" stroke="#F9F9F9" stroke-width="2" stroke-linecap="round" stroke-linejoin="round"/>
</svg>
